<svg width="40" height="40" viewBox="0 0 40 40" fill="none" xmlns="http://www.w3.org/2000/svg">
<g clip-path="url(#clip0_5559_15344)">
<path d="M14.6846 5.47501C12.7443 6.59522 11.1392 8.01282 9.86335 9.72787C8.58109 11.4515 7.67541 13.3046 7.14285 15.2893C6.61034 17.2737 6.46816 19.3316 6.71733 21.4663C6.96529 23.5903 7.64621 25.6202 8.76659 27.5587C9.88722 29.4975 11.3051 31.1033 13.0199 32.3808C14.743 33.6643 16.5962 34.5694 18.5808 35.1004C20.5658 35.6315 22.624 35.7745 24.7584 35.5268C26.8819 35.2804 28.9121 34.5982 30.8511 33.4762C31.6639 33.0069 32.4308 32.4566 33.1513 31.8235C33.868 31.1936 34.5022 30.5032 35.0549 29.7535C35.1973 29.5541 35.2787 29.3345 35.3005 29.0851C35.3212 28.8477 35.2742 28.6372 35.1598 28.439C35.0733 28.2893 34.9607 28.1705 34.8186 28.0767C34.7172 28.0097 34.5989 27.9571 34.4582 27.925L34.3097 27.9003L34.2987 27.8987C31.7748 27.537 29.4654 26.6347 27.3762 25.1939C25.2897 23.7549 23.6081 21.9309 22.3351 19.726C21.0615 17.5202 20.3311 15.1524 20.1468 12.6291C19.9629 10.1105 20.3375 7.65673 21.2685 5.2732C21.331 5.09411 21.3556 4.91754 21.345 4.73965C21.3348 4.56963 21.2877 4.41191 21.2013 4.2622C21.0828 4.05718 20.9232 3.90592 20.7146 3.80008C20.5059 3.69425 20.2881 3.65185 20.0507 3.67367C19.0987 3.79127 18.1709 4.0043 17.2665 4.31024C16.3579 4.61761 15.4974 5.00571 14.6846 5.47501Z" fill="#FFE59E" stroke="#FFE59E"/>
</g>
<defs>
<clipPath id="clip0_5559_15344">
<rect width="40" height="40" fill="white"/>
</clipPath>
</defs>
</svg>
