<svg width="48" height="48" viewBox="0 0 48 48" fill="none" xmlns="http://www.w3.org/2000/svg">
<path d="M16.8008 36.409V33.4878C16.8008 33.2227 17.0157 33.0078 17.2808 33.0078H30.7208C30.9859 33.0078 31.2008 33.2227 31.2008 33.4878V36.409C31.2008 36.5363 31.149 36.6569 31.0411 36.7245C30.5595 37.026 28.8438 37.8078 24.0008 37.8078C19.1577 37.8078 17.442 37.026 16.9604 36.7245C16.8525 36.6569 16.8008 36.5363 16.8008 36.409Z" fill="#00994A"/>
<path d="M41.52 19.6094H6.48C6.2149 19.6094 6.00255 19.8164 6.02028 20.0809C6.19487 22.6868 7.87288 35.2094 24 35.2094C40.1271 35.2094 41.8051 22.6868 41.9797 20.0809C41.9974 19.8164 41.7851 19.6094 41.52 19.6094Z" fill="#35C156"/>
<path d="M37.5021 16.096C38.0227 16.2738 39.081 16.6801 39.5992 17.1983C40.0299 17.629 40.3833 18.433 40.5925 18.9912C40.705 19.2914 40.478 19.5983 40.1575 19.5983L7.83005 19.5977C7.51282 19.5977 7.28701 19.2969 7.39614 18.9991C7.59782 18.4486 7.94571 17.6512 8.39922 17.1977C8.94122 16.6557 9.97443 16.2645 10.4902 16.0936C10.6762 16.0319 10.8144 15.8705 10.8601 15.68C10.9706 15.2188 11.2651 14.3389 11.9992 13.6049C12.4653 13.1389 13.2289 12.8502 13.9331 12.6732C14.2192 12.6013 15.3632 11.3848 15.5992 11.2078C16.5432 10.4998 18.2297 10.9057 18.9064 11.1111C19.0865 11.1658 19.2844 11.1229 19.4279 11.0011C19.8327 10.658 20.7159 10.0078 21.5992 10.0078C22.3107 10.0078 23.444 10.4297 23.9988 10.7731C24.5531 10.4292 25.6873 10.0067 26.3992 10.0078C27.2825 10.0093 28.1658 10.6588 28.5705 11.0015C28.7141 11.123 28.9118 11.1659 29.0917 11.1112C29.7682 10.9058 31.4551 10.4997 32.3992 11.2078C32.6353 11.3849 33.779 12.6015 34.0653 12.6734C34.7696 12.8505 35.5332 13.1394 35.9992 13.6055C36.736 14.3423 37.03 15.226 37.1396 15.6857C37.1844 15.8737 37.3192 16.0336 37.5021 16.096Z" fill="url(#paint0_linear_5682_14955)"/>
<defs>
<linearGradient id="paint0_linear_5682_14955" x1="23.9992" y1="10.0078" x2="23.9992" y2="19.5983" gradientUnits="userSpaceOnUse">
<stop stop-color="#EAE5D5"/>
<stop offset="1" stop-color="#F1EFE7"/>
</linearGradient>
</defs>
</svg>
