<svg width="24" height="24" viewBox="0 0 24 24" fill="none" xmlns="http://www.w3.org/2000/svg">
<path d="M8.40039 18.7045V17.2439C8.40039 17.1114 8.50784 17.0039 8.64039 17.0039H15.3604C15.4929 17.0039 15.6004 17.1114 15.6004 17.2439V18.7045C15.6004 18.7681 15.5745 18.8285 15.5206 18.8622C15.2798 19.013 14.4219 19.4039 12.0004 19.4039C9.57886 19.4039 8.72101 19.013 8.48022 18.8622C8.42627 18.8285 8.40039 18.7681 8.40039 18.7045Z" fill="#1F76A2"/>
<path d="M20.76 9.80469H3.24C3.10745 9.80469 3.00128 9.90819 3.01014 10.0404C3.09744 11.3434 3.93644 17.6047 12 17.6047C20.0636 17.6047 20.9026 11.3434 20.9899 10.0404C20.9987 9.90819 20.8925 9.80469 20.76 9.80469Z" fill="#2F98D5"/>
<path d="M18.7511 8.04802C19.0113 8.13691 19.5405 8.34006 19.7996 8.59915C20.0149 8.81448 20.1917 9.21649 20.2963 9.49562C20.3525 9.64568 20.239 9.79914 20.0788 9.79914L3.91503 9.79885C3.75641 9.79885 3.6435 9.64847 3.69807 9.49954C3.79891 9.22431 3.97286 8.8256 4.19961 8.59885C4.47061 8.32785 4.98722 8.13227 5.24512 8.04678C5.33811 8.01596 5.40721 7.93526 5.43004 7.84C5.4853 7.60942 5.63253 7.16943 5.99961 6.80243C6.23264 6.56944 6.61443 6.42508 6.96656 6.33659C7.10961 6.30064 7.68161 5.6924 7.79961 5.60391C8.2716 5.24992 9.11487 5.45285 9.45322 5.55556C9.54327 5.5829 9.64219 5.56144 9.71397 5.50057C9.91634 5.32898 10.358 5.00391 10.7996 5.00391C11.1554 5.00391 11.722 5.21483 11.9994 5.38656C12.2766 5.21459 12.8437 5.00333 13.1996 5.00391C13.6413 5.00463 14.0829 5.32939 14.2853 5.50075C14.357 5.56152 14.4559 5.58293 14.5459 5.55561C14.8841 5.45291 15.7276 5.24987 16.1996 5.60391C16.3177 5.69245 16.8895 6.30073 17.0326 6.33672C17.3848 6.42527 17.7666 6.5697 17.9996 6.80273C18.368 7.17114 18.515 7.61299 18.5698 7.84285C18.5922 7.93687 18.6596 8.01678 18.7511 8.04802Z" fill="url(#paint0_linear_5682_14946)"/>
<defs>
<linearGradient id="paint0_linear_5682_14946" x1="11.9996" y1="5.00391" x2="11.9996" y2="9.79915" gradientUnits="userSpaceOnUse">
<stop stop-color="#EAE5D5"/>
<stop offset="1" stop-color="#F1EFE7"/>
</linearGradient>
</defs>
</svg>
