<svg width="41" height="22" viewBox="0 0 41 22" fill="none" xmlns="http://www.w3.org/2000/svg">
<rect width="41" height="22" rx="11" fill="#FFA13D" fill-opacity="0.1"/>
<path d="M16.2344 6.29297V6.87891C16.2227 7.58203 16.2227 8.625 15.9648 9.98438L14.8633 9.87891C15.0918 8.71289 15.127 7.86914 15.1445 7.20703H10.9375V6.29297H16.2344ZM13.5508 8.64844V10.8164C14.6758 10.7812 15.8359 10.6992 16.8906 10.5469L16.9609 11.3555C14.7695 11.7422 12.2617 11.7773 10.4102 11.7891L10.3047 10.8867C10.9492 10.8809 11.6816 10.875 12.4492 10.8516V8.64844H13.5508ZM18.6953 5.49609V8.83594H20.1367V9.77344H18.6953V13.3828H17.5586V5.49609H18.6953ZM19.0352 14.8711V15.7734H11.8984V12.668H13.0117V14.8711H19.0352ZM29.4648 5.50781V11.4492H28.3516V5.50781H29.4648ZM29.4648 12.0117V15.8672H22.5625V12.0117H29.4648ZM23.6641 12.9023V14.9648H28.375V12.9023H23.6641ZM24.5781 6.92578C24.5664 8.34375 25.5859 9.62109 27.1797 10.1602L26.6289 11.0156C25.4102 10.6113 24.4961 9.7793 24.0156 8.69531C23.5469 9.84961 22.6152 10.7695 21.3555 11.2148L20.8047 10.3359C22.4453 9.78516 23.4414 8.39062 23.4414 6.92578V5.90625H24.5781V6.92578Z" fill="#FFA13D"/>
</svg>
