<svg width="52" height="23" viewBox="0 0 52 23" fill="none" xmlns="http://www.w3.org/2000/svg">
<rect width="52" height="23" rx="11.5" fill="#F0F0F0"/>
<path d="M15.8945 7.00391V13.9062H10.9727V7.00391H15.8945ZM12.0742 7.88281V13.0039H14.8164V7.88281H12.0742ZM19.082 5.99609V16.5195H17.9688V5.99609H19.082ZM29.4883 5.99609V16.4961H28.3633V5.99609H29.4883ZM26.3594 7.12109C26.3594 10.1914 25.0469 12.8633 21.4492 14.5859L20.8633 13.6836C23.6582 12.3535 25.0176 10.4609 25.2344 8.01172H21.3672V7.12109H26.3594ZM40.7266 11.7266V12.6289H31.1172V11.7266H35.3711V10.7305H32.3477V8.05859H38.4062V7.12109H32.3242V6.24219H39.5195V8.87891H33.4492V9.86328H39.7305V10.7305H36.4727V11.7266H40.7266ZM39.5781 13.3672V16.4141H38.4531V14.2578H32.1953V13.3672H39.5781Z" fill="#AFAFAF"/>
</svg>
