<svg width="41" height="22" viewBox="0 0 41 22" fill="none" xmlns="http://www.w3.org/2000/svg">
<rect width="41" height="22" rx="11" fill="#E6FAEF"/>
<path d="M20.125 6.98438V7.89844H18.6367V9.23438H20.125V10.1602H18.6367V11.6953H17.5234V5.49609H18.6367V6.98438H20.125ZM13.3398 6.10547C14.9453 6.10547 16.1289 7.125 16.1406 8.60156C16.1289 10.0664 14.9453 11.0859 13.3398 11.0977C11.7344 11.0859 10.5391 10.0664 10.5508 8.60156C10.5391 7.125 11.7344 6.10547 13.3398 6.10547ZM13.3398 7.04297C12.3555 7.04297 11.6289 7.67578 11.6406 8.60156C11.6289 9.53906 12.3555 10.1484 13.3398 10.1602C14.3242 10.1484 15.0508 9.53906 15.0508 8.60156C15.0508 7.67578 14.3242 7.04297 13.3398 7.04297ZM15.25 11.9766C17.3945 11.9766 18.7305 12.7148 18.7305 13.9805C18.7305 15.2344 17.3945 15.9844 15.25 15.9727C13.082 15.9844 11.7227 15.2344 11.7227 13.9805C11.7227 12.7148 13.082 11.9766 15.25 11.9766ZM15.25 12.8789C13.7266 12.8789 12.8242 13.2773 12.8359 13.9805C12.8242 14.6953 13.7266 15.082 15.25 15.082C16.7617 15.082 17.6406 14.6953 17.6406 13.9805C17.6406 13.2773 16.7617 12.8789 15.25 12.8789ZM29.8516 6.97266V7.875H21.2148V6.97266H24.9883V5.64844H26.0898V6.97266H29.8516ZM30.3672 13.9102V14.8125H20.7578V13.9102H24.9883V12.5156C23.1484 12.4043 22.0352 11.6777 22.0352 10.5117C22.0352 9.24609 23.3711 8.50781 25.5391 8.50781C27.6836 8.50781 29.0312 9.24609 29.0312 10.5117C29.0312 11.6777 27.9121 12.4043 26.0898 12.5156V13.9102H30.3672ZM25.5391 9.38672C24.0391 9.38672 23.1602 9.78516 23.1719 10.5117C23.1602 11.2383 24.0391 11.6367 25.5391 11.6484C27.0156 11.6367 27.8945 11.2383 27.8945 10.5117C27.8945 9.78516 27.0156 9.38672 25.5391 9.38672Z" fill="#35C156"/>
</svg>
