<svg width="24" height="24" viewBox="0 0 24 24" fill="none" xmlns="http://www.w3.org/2000/svg">
<g clip-path="url(#clip0_1086_9904)">
<path d="M11.9996 13.4142L14.1209 15.5355C14.3212 15.7359 14.5572 15.8361 14.8287 15.8361C15.1002 15.8361 15.3357 15.7359 15.5351 15.5355C15.7345 15.3352 15.8347 15.0992 15.8356 14.8277C15.8366 14.5562 15.7364 14.3207 15.5351 14.1213L13.4138 12L15.5351 9.87868C15.7354 9.67833 15.8356 9.4424 15.8356 9.17087C15.8356 8.89934 15.7354 8.66387 15.5351 8.46447C15.3347 8.26506 15.099 8.16512 14.828 8.16465C14.5569 8.16418 14.3212 8.26412 14.1209 8.46447L11.9996 10.5858L9.87824 8.46447C9.67789 8.26412 9.44219 8.16418 9.17113 8.16465C8.90007 8.16512 8.66437 8.26506 8.46402 8.46447C8.26368 8.66387 8.16374 8.89957 8.16421 9.17157C8.16468 9.44357 8.26462 9.67927 8.46402 9.87868L10.5853 12L8.46402 14.1213C8.26368 14.3217 8.16374 14.5574 8.16421 14.8284C8.16468 15.0995 8.26462 15.3352 8.46402 15.5355C8.66343 15.7359 8.89937 15.8361 9.17184 15.8361C9.44431 15.8361 9.67978 15.7359 9.87824 15.5355L11.9996 13.4142ZM19.0706 19.0711C18.0925 20.0492 16.9875 20.7827 15.7557 21.2716C14.5239 21.7604 13.2719 22.0051 11.9996 22.0056C10.7272 22.006 9.47519 21.7614 8.24341 21.2716C7.01163 20.7818 5.90665 20.0483 4.92849 19.0711C3.95033 18.0938 3.21682 16.9889 2.72797 15.7562C2.23913 14.5234 1.99447 13.2714 1.994 12C1.99353 10.7286 2.23819 9.47657 2.72797 8.24385C3.21776 7.01112 3.95127 5.90615 4.92849 4.92893C5.90571 3.95171 7.01068 3.21821 8.24341 2.72842C9.47613 2.23863 10.7282 1.99397 11.9996 1.99444C13.2709 1.99491 14.5232 2.23933 15.7564 2.72771C16.9896 3.21608 18.0943 3.94982 19.0706 4.92893C20.0469 5.90804 20.7804 7.01301 21.2711 8.24385C21.7619 9.47468 22.0065 10.7267 22.0051 12C22.0037 13.2733 21.7593 14.5255 21.2718 15.7569C20.7844 16.9882 20.0507 18.0929 19.0706 19.0711Z" fill="#FF4949"/>
</g>
<defs>
<clipPath id="clip0_1086_9904">
<rect width="24" height="24" fill="white"/>
</clipPath>
</defs>
</svg>
